<?xml version="1.0" standalone="no"?>
<!DOCTYPE svg PUBLIC "-//W3C//DTD SVG 20010904//EN"
 "http://www.w3.org/TR/2001/REC-SVG-20010904/DTD/svg10.dtd">
<svg version="1.0" xmlns="http://www.w3.org/2000/svg"
 width="1252.000000pt" height="1280.000000pt" viewBox="0 0 1252.000000 1280.000000"
 preserveAspectRatio="xMidYMid meet">
<metadata>
Created by potrace 1.15, written by Peter Selinger 2001-2017
</metadata>
<g transform="translate(0.000000,1280.000000) scale(0.100000,-0.100000)"
fill="#000000" stroke="none">
<path d="M6040 12794 c-146 -25 -263 -61 -360 -109 -303 -151 -472 -493 -519
-1050 -6 -66 -11 -246 -11 -400 0 -263 8 -439 45 -950 8 -115 15 -256 15 -312
l0 -102 -30 -16 c-38 -20 -152 -41 -310 -57 -261 -27 -2050 -11 -2595 24 -244
15 -804 15 -930 0 -320 -40 -469 -77 -662 -167 -251 -118 -445 -324 -544 -579
-102 -262 -146 -620 -135 -1086 6 -244 14 -396 47 -880 16 -224 15 -575 -1
-1265 -22 -952 0 -1646 61 -1867 27 -98 96 -239 153 -315 164 -216 455 -361
843 -418 247 -36 307 -37 2215 -35 l1876 2 9 -34 c4 -18 7 -512 5 -1098 -3
-1357 -1 -1395 92 -1585 81 -163 213 -293 386 -380 166 -83 283 -109 480 -109
119 -1 161 4 235 23 111 29 236 86 323 148 39 27 328 308 682 663 2047 2050
3917 3906 4095 4065 501 448 701 661 837 895 246 421 235 808 -36 1215 -111
167 -250 311 -2015 2080 -1005 1007 -2098 2105 -2431 2440 -332 336 -668 673
-745 750 -291 290 -502 427 -755 491 -55 14 -273 26 -320 18z"/>
</g>
</svg>
