<?xml version="1.0" encoding="UTF-8" standalone="no"?>
<!-- Created with Inkscape (http://www.inkscape.org/) -->

<svg
   width="210mm"
   height="297mm"
   viewBox="0 0 210 297"
   version="1.1"
   id="svg5"
   xmlns="http://www.w3.org/2000/svg"
   xmlns:svg="http://www.w3.org/2000/svg">
  <defs
     id="defs2" />
  <g
     id="layer1">
    <circle
       style="fill:#ff0000;fill-rule:evenodd;stroke-width:0.264583"
       id="path31"
       cx="-72.144608"
       cy="116.49812"
       r="32.282608" />
    <ellipse
       style="fill:#ff0000;fill-rule:evenodd;stroke-width:0.264583"
       id="path33"
       ry="27.510397"
       rx="28.071833"
       cy="147.09641"
       cx="-32.001892" />
    <path
       style="fill:#ff0000;fill-rule:evenodd"
       id="path40"
       d="M 25.729277,176.75572 A 24.983932,24.141777 0 0 1 0.7497426,200.8975 24.983932,24.141777 0 0 1 -24.238586,176.76422 24.983932,24.141777 0 0 1 0.73215123,152.61395 24.983932,24.141777 0 0 1 25.729271,176.73872 l -24.98392624,0.017 z" />
    <path
       style="fill:#ff0000;fill-rule:evenodd"
       id="path44"
       d="M 67.933838,181.00642 A 22.505875,21.110788 0 0 1 45.431891,202.11721 22.505875,21.110788 0 0 1 22.92209,181.01379 22.505875,21.110788 0 0 1 45.416179,159.89564 22.505875,21.110788 0 0 1 67.933832,180.99169 l -22.505869,0.0147 z" />
    <path
       style="fill:#ff0000;fill-rule:evenodd"
       id="path46"
       d="m 93.338844,166.74669 a 18.808128,17.404537 0 0 1 -18.804845,17.40454 18.808128,17.404537 0 0 1 -18.81141,-17.39847 18.808128,17.404537 0 0 1 18.798279,-17.41061 18.808128,17.404537 0 0 1 18.817972,17.39239 l -18.808124,0.0121 z" />
    <path
       style="fill:#ff0000;fill-rule:evenodd"
       id="path48"
       d="m 106.11154,146.53497 a 14.597354,14.597353 0 0 1 -14.594809,14.59736 14.597354,14.597353 0 0 1 -14.599901,-14.59226 14.597354,14.597353 0 0 1 14.58971,-14.60245 14.597354,14.597353 0 0 1 14.60499,14.58716 l -14.597347,0.0102 z" />
    <path
       style="fill:#ff0000;fill-rule:evenodd"
       id="path50"
       d="m 117.90169,129.97258 a 11.79017,12.070889 0 0 1 -11.78811,12.07089 11.79017,12.070889 0 0 1 -11.79223,-12.06668 11.79017,12.070889 0 0 1 11.784,-12.0751 11.79017,12.070889 0 0 1 11.79634,12.06246 l -11.79017,0.008 z" />
    <ellipse
       style="fill:#ff0000;fill-rule:evenodd;stroke-width:0.264583"
       id="path59"
       cx="117.90169"
       cy="129.96416"
       rx="8.7022686"
       ry="8.9829874" />
    <path
       style="fill:#ff0000;fill-rule:evenodd;stroke-width:0.264583"
       id="path61"
       d="m 81.689032,166.74669 a 7.1583161,0.56143278 0 0 1 -4.3886,0.5177 l -2.769716,-0.5177 z" />
    <ellipse
       style="fill:#ff0000;fill-rule:evenodd;stroke-width:0.264583"
       id="path69"
       cx="130.81474"
       cy="133.3412"
       rx="6.7372403"
       ry="7.0179582" />
    <ellipse
       style="fill:#ff0000;fill-rule:evenodd;stroke-width:0.264583"
       id="path71"
       cx="-28.071833"
       cy="149.90359"
       rx="2.8071833"
       ry="0.56143665" />
    <path
       style="fill:#ff995e;fill-opacity:1;stroke-width:0.561439"
       d="m 39.17513,201.53895 c -7.015843,-0.89806 -14.697976,-6.66016 -16.958478,-12.71993 l -1.121194,-3.00563 -1.55175,2.64785 c -7.866413,13.42302 -26.3823326,16.18836 -38.333214,5.72503 -4.898345,-4.28863 -8.677275,-13.44762 -7.803337,-18.91293 l 0.346418,-2.1664 -1.821346,0.52236 c -2.88872,0.82847 -11.127692,0.61694 -14.499547,-0.37227 -10.900862,-3.19802 -19.611827,-13.96347 -19.611827,-24.23726 0,-2.69388 -0.117581,-3.01176 -0.982515,-2.65635 -6.06533,2.49234 -14.545056,2.73826 -21.194236,0.61462 -10.633198,-3.39605 -19.042634,-12.36477 -21.578854,-23.01399 -0.84021,-3.5279 -0.84021,-11.19139 0,-14.71931 2.67318,-11.224311 12.539311,-21.090438 23.763623,-23.763619 3.527912,-0.840208 11.191397,-0.840208 14.719311,0 8.720187,2.076799 17.270648,8.89336 21.081686,16.806649 2.592996,5.38412 3.335978,8.57986 3.335978,14.34877 v 4.64558 l 1.79289,-0.51419 c 2.86415,-0.82142 11.113642,-0.60456 14.471089,0.38044 8.686493,2.54839 15.614487,9.27573 18.5086095,17.97256 0.947548,2.84738 1.1457415,4.61667 1.0018622,8.94367 l -0.1793633,5.39408 3.0879026,-0.35862 c 3.80772557,-0.44221 10.0298483,0.77365 13.8259914,2.70173 5.7093006,2.89976 9.9679666,7.85562 12.0594586,14.03373 l 0.919623,2.71647 1.198531,-1.93927 c 5.35266,-8.66079 17.323795,-12.50784 27.264451,-8.76172 1.525543,0.57491 2.80229,0.98811 2.83721,0.91824 0.03492,-0.0699 0.538127,-1.21773 1.118233,-2.55081 1.367024,-3.1414 4.610888,-6.45261 7.989265,-8.15511 3.248889,-1.63726 5.525223,-2.16749 9.183459,-2.13917 l 2.766356,0.0215 0.01236,-3.47684 c 0.01498,-4.22068 1.271878,-7.17659 4.271875,-10.0463 2.856214,-2.73221 5.607445,-3.81713 9.679763,-3.81713 h 3.332761 l 0.02191,-2.82542 c 0.02684,-3.46105 1.736209,-6.75641 4.769866,-9.19528 1.993834,-1.60292 2.486906,-1.73449 6.500219,-1.73449 3.85582,0 4.56614,0.1704 6.33537,1.51986 1.60852,1.22687 2.37885,1.45717 3.99623,1.19471 1.10198,-0.17882 2.62946,-0.16805 3.3944,0.0239 2.02836,0.50908 4.88079,3.1028 5.78057,5.25629 0.74571,1.78472 0.839,1.83146 2.01362,1.00872 0.67741,-0.47447 2.2113,-0.86269 3.40864,-0.86269 1.72718,0 2.57136,0.39439 4.08585,1.90888 1.62935,1.62936 1.90888,2.29529 1.90888,4.54764 0,2.25235 -0.27952,2.91828 -1.90888,4.54764 -1.5727,1.57269 -2.32959,1.90888 -4.29771,1.90888 -2.05195,0 -2.6866,-0.31303 -4.50044,-2.21977 -1.83471,-1.92868 -2.2045,-2.1079 -2.81972,-1.36658 -1.41349,1.70314 -3.98211,2.59775 -6.6087,2.30169 -2.12523,-0.23953 -2.85438,-0.0507 -4.42212,1.14504 -1.18869,0.90665 -2.85231,1.52556 -4.53545,1.68728 l -2.65815,0.25542 0.21582,3.81941 c 0.12151,2.15041 -0.0884,4.74116 -0.48035,5.92881 -1.43629,4.35201 -7.410787,9.17856 -11.3999,9.20952 -1.512124,0.0118 -1.566151,0.10011 -1.122876,1.83701 2.773729,10.8681 -5.904084,21.26245 -17.734022,21.24193 -2.032979,-0.003 -4.517419,-0.25071 -5.52099,-0.54929 -1.752962,-0.52157 -1.824667,-0.48122 -1.824667,1.02678 0,0.86333 -0.896295,3.36128 -1.991769,5.551 -4.319978,8.63513 -13.22542,13.08684 -23.538658,11.76668 z m 66.93639,-71.56637 c -0.54038,-0.14122 -1.42465,-0.14122 -1.96503,0 -0.54038,0.14122 -0.0982,0.25676 0.98251,0.25676 1.08076,0 1.5229,-0.11554 0.98252,-0.25676 z"
       id="path154" />
    <ellipse
       style="fill:#280b0b;stroke-width:0.26661"
       id="path544"
       cx="-90.952736"
       cy="109.19943"
       rx="3.3686199"
       ry="3.0879016" />
    <ellipse
       style="fill:#280b0b;stroke-width:0.229136"
       id="path546"
       cx="-76.636108"
       cy="112.28733"
       rx="3.6493382"
       ry="3.3686204" />
    <path
       style="fill:#782121;stroke:#000000;stroke-width:0.24471px;stroke-linecap:butt;stroke-linejoin:miter;stroke-opacity:0.779116"
       d="m -90.281389,92.030262 -7.493807,1.727095 10.303982,-8.059775 -6.088713,-2.302792 -10.303983,2.302792 7.493806,-6.33268 8.89889,-2.302793 9.367253,2.302793 -2.810177,-4.605585 -10.303977,-1.727092 14.519241,-1.727096 5.151988,4.605585 1.873449,4.605586 2.341814,3.454189 z"
       id="path2481" />
    <path
       style="fill:#ff2a2a;fill-opacity:0.502008;stroke:#000000;stroke-width:0.183241px;stroke-linecap:butt;stroke-linejoin:miter;stroke-opacity:1"
       d="m -75.175943,126.86403 c -0.497969,0.42168 -1.192194,0.65175 -1.690164,1.07343 -0.09959,0.0843 0.09959,0.27346 0,0.3578 -0.24453,0.20708 -1.312333,0.22983 -1.690162,0.35781 -0.584835,0.1981 -1.105329,0.51753 -1.690163,0.71563 -1.099165,0.37231 -7.438375,0.0709 -8.450816,-0.35782 -0.45071,-0.19084 -1.239453,0.19083 -1.690162,0 -0.887815,-0.37589 0.0082,-0.70867 -0.422542,-1.07342 -0.874252,-0.74033 0.03417,1.13129 -0.845082,-0.35781 -1.050609,-1.77932 -0.9267,-4.24589 -3.802868,-4.65152 0.716728,0.55839 3.152253,0.61905 4.225409,1.07344 0.492205,0.2084 0.775416,0.5072 1.267622,0.71561 0.338032,0.14312 0.92959,-0.14313 1.267623,0 1.090894,0.46188 -0.278837,0.6369 1.267622,1.07343 0.733244,0.20697 0.926271,-0.28905 1.690162,0.3578 0.09959,0.0843 -0.09959,0.27347 0,0.3578 0.654696,0.5544 8.643727,-0.45503 10.563521,0.35782 z"
       id="path2709" />
  </g>
</svg>
